<?xml version="1.0" encoding="UTF-8" standalone="no"?>
<!-- Created with Inkscape (http://www.inkscape.org/) -->

<svg
   width="256"
   height="256"
   viewBox="0 0 256 256"
   version="1.1"
   id="svg5"
   xmlns="http://www.w3.org/2000/svg"
   xmlns:svg="http://www.w3.org/2000/svg">
  <defs
     id="defs2">
    <rect
       x="90.332497"
       y="108.59644"
       width="75.523888"
       height="31.591694"
       id="rect2124" />
  </defs>
  <g
     id="layer1">
    <circle
       style="fill:#000000"
       id="path61"
       cx="128.09444"
       cy="128.09444"
       r="128" />
    <circle
       style="fill:none;fill-rule:evenodd;stroke:#ffffff;stroke-width:6;stroke-dasharray:none;stroke-opacity:1"
       id="path115"
       cx="128"
       cy="128"
       r="120" />
    <g
       aria-label="LPG"
       transform="matrix(4.7184591,0,0,5.5231931,-353.75744,-508.20127)"
       id="text2122"
       style="white-space:pre;shape-inside:url(#rect2124);fill:#ffffff">
      <path
         d="m 97.023437,119.54367 h -5.519531 v -8.72461 h 1.160156 v 7.69336 h 4.359375 z"
         id="path2128" />
      <path
         d="m 103.89063,113.45578 q 0,0.58007 -0.20508,1.07812 -0.19922,0.49219 -0.5625,0.85547 -0.45117,0.45117 -1.06641,0.67969 -0.61523,0.22265 -1.55273,0.22265 h -1.16016 v 3.25196 h -1.160156 v -8.72461 h 2.367186 q 0.78516,0 1.33008,0.13476 0.54492,0.12891 0.9668,0.41016 0.49804,0.33398 0.76757,0.83203 0.2754,0.49805 0.2754,1.25977 z m -1.20704,0.0293 q 0,-0.45117 -0.1582,-0.78515 -0.1582,-0.33399 -0.48047,-0.54492 -0.28125,-0.18165 -0.64453,-0.25782 -0.35742,-0.082 -0.9082,-0.082 h -1.14844 v 3.48633 h 0.97852 q 0.70312,0 1.14257,-0.12305 0.43946,-0.1289 0.71485,-0.40429 0.27539,-0.28125 0.38672,-0.5918 0.11718,-0.31055 0.11718,-0.69727 z"
         id="path2130" />
      <path
         d="m 112.69727,118.89914 q -0.71485,0.32812 -1.56446,0.57421 -0.84375,0.24024 -1.63476,0.24024 -1.01953,0 -1.86914,-0.28125 -0.84961,-0.28125 -1.44727,-0.84375 -0.60351,-0.56836 -0.93164,-1.41797 -0.32812,-0.85547 -0.32812,-1.99805 0,-2.09179 1.21875,-3.29882 1.2246,-1.2129 3.35742,-1.2129 0.74414,0 1.51758,0.18165 0.77929,0.17578 1.67578,0.60351 v 1.37695 h -0.10547 q -0.18164,-0.14062 -0.52735,-0.36914 -0.3457,-0.22851 -0.67968,-0.38086 -0.4043,-0.18164 -0.91993,-0.29882 -0.50976,-0.12305 -1.16015,-0.12305 -1.46485,0 -2.32031,0.94336 -0.84961,0.9375 -0.84961,2.54297 0,1.69336 0.89062,2.63672 0.89063,0.9375 2.42578,0.9375 0.5625,0 1.11914,-0.11133 0.5625,-0.11133 0.98438,-0.28711 v -2.13867 h -2.33789 V 115.155 h 3.48633 z"
         id="path2132" />
    </g>
  </g>
</svg>
