<?xml version="1.0" encoding="UTF-8" standalone="no"?>
<!-- Created with Inkscape (http://www.inkscape.org/) -->

<svg
   width="256"
   height="256"
   viewBox="0 0 256 256"
   version="1.1"
   id="svg5"
   inkscape:export-filename="on_icon.svg"
   inkscape:export-xdpi="96"
   inkscape:export-ydpi="96"
   sodipodi:docname="on_icon.svg"
   inkscape:version="1.2 (dc2aedaf03, 2022-05-15)"
   xmlns:inkscape="http://www.inkscape.org/namespaces/inkscape"
   xmlns:sodipodi="http://sodipodi.sourceforge.net/DTD/sodipodi-0.dtd"
   xmlns="http://www.w3.org/2000/svg"
   xmlns:svg="http://www.w3.org/2000/svg">
  <sodipodi:namedview
     id="namedview7"
     pagecolor="#505050"
     bordercolor="#ffffff"
     borderopacity="1"
     inkscape:showpageshadow="0"
     inkscape:pageopacity="0"
     inkscape:pagecheckerboard="1"
     inkscape:deskcolor="#505050"
     inkscape:document-units="px"
     showgrid="false"
     inkscape:zoom="3.0273438"
     inkscape:cx="127.83484"
     inkscape:cy="128"
     inkscape:window-width="1920"
     inkscape:window-height="991"
     inkscape:window-x="-9"
     inkscape:window-y="-9"
     inkscape:window-maximized="1"
     inkscape:current-layer="layer1" />
  <defs
     id="defs2" />
  <g
     inkscape:label="Layer 1"
     inkscape:groupmode="layer"
     id="layer1">
    <circle
       style="fill:#000000"
       id="path61"
       cx="128.09444"
       cy="128.09444"
       r="128" />
    <circle
       style="fill:none;fill-rule:evenodd;stroke:#ffffff;stroke-width:6;stroke-dasharray:none;stroke-opacity:1"
       id="path115"
       cx="128"
       cy="128"
       r="120" />
    <g
       aria-label="ON"
       transform="scale(0.96473285,1.0365564)"
       id="text627"
       style="font-size:63.6935px;fill:#ffffff;stroke-width:5.30778">
      <path
         d="m 125.79048,105.64975 q 2.83013,3.11003 4.32295,7.61958 1.52392,4.50955 1.52392,10.23201 0,5.72247 -1.55502,10.26312 -1.52392,4.50955 -4.29185,7.52628 -2.86123,3.14114 -6.77987,4.72725 -3.88755,1.58612 -8.8947,1.58612 -4.88275,0 -8.8947,-1.61722 -3.980842,-1.61722 -6.779873,-4.69615 -2.79903,-3.07893 -4.322947,-7.55738 -1.492817,-4.47845 -1.492817,-10.23202 0,-5.66026 1.492817,-10.13871 1.492816,-4.50955 4.354048,-7.71288 2.73683,-3.04783 6.779872,-4.66505 4.07415,-1.617221 8.8636,-1.617221 4.97605,0 8.9258,1.648321 3.98084,1.61722 6.74877,4.63395 z m -0.5598,17.85159 q 0,-9.01909 -4.04305,-13.90185 -4.04304,-4.91385 -11.04062,-4.91385 -7.05978,0 -11.102822,4.91385 -4.011944,4.88276 -4.011944,13.90185 0,9.11241 4.105245,13.96406 4.105241,4.82055 11.009521,4.82055 6.90428,0 10.97842,-4.82055 4.10525,-4.85165 4.10525,-13.96406 z"
         id="path659" />
      <path
         d="m 176.73284,146.64 h -7.61958 L 147.15642,105.21434 V 146.64 h -5.75357 v -46.30841 h 9.54781 l 20.02862,37.81802 v -37.81802 h 5.75356 z"
         id="path661" />
    </g>
  </g>
</svg>
