<?xml version="1.0" encoding="UTF-8" standalone="no"?>
<!-- Created with Inkscape (http://www.inkscape.org/) -->

<svg
   width="256"
   height="256"
   viewBox="0 0 256 256"
   version="1.1"
   id="svg5"
   xmlns="http://www.w3.org/2000/svg"
   xmlns:svg="http://www.w3.org/2000/svg">
  <defs
     id="defs2" />
  <g
     id="layer1">
    <circle
       style="fill:#000000"
       id="path61"
       cx="128.09444"
       cy="128.09444"
       r="128" />
    <circle
       style="fill:none;fill-rule:evenodd;stroke:#ffffff;stroke-width:6;stroke-dasharray:none;stroke-opacity:1"
       id="path115"
       cx="128"
       cy="128"
       r="120" />
    <g
       aria-label="Pb"
       transform="scale(1.0735971,0.93144813)"
       id="text346"
       style="font-size:69.273px;fill:#ffffff;stroke-width:5.77275">
      <path
         d="m 114.9127,103.37516 q 0,3.34864 -1.18387,6.22374 -1.15004,2.84128 -3.24717,4.93841 -2.6045,2.6045 -6.15609,3.92367 -3.5516,1.28533 -8.963552,1.28533 h -6.697292 v 18.77272 H 81.967433 V 88.154037 h 13.665183 q 4.532514,0 7.678204,0.777968 3.1457,0.744144 5.58108,2.36773 2.8751,1.928008 4.43104,4.803108 1.58976,2.875101 1.58976,7.272317 z m -6.96789,0.16912 q 0,-2.6045 -0.91327,-4.532512 -0.91326,-1.928008 -2.77362,-3.145697 -1.62359,-1.048566 -3.72072,-1.488288 -2.063309,-0.473546 -5.242832,-0.473546 h -6.629642 v 20.125703 h 5.648726 q 4.058965,0 6.595818,-0.71032 2.53685,-0.74414 4.12661,-2.3339 1.58977,-1.62359 2.23244,-3.4163 0.67649,-1.79271 0.67649,-4.02514 z"
         id="path562" />
      <path
         d="m 156.48326,119.34042 q 0,4.73546 -1.35298,8.52382 -1.31917,3.78837 -3.58542,6.35905 -2.40156,2.67215 -5.27666,4.02514 -2.8751,1.31916 -6.32522,1.31916 -3.21334,0 -5.6149,-0.77796 -2.40155,-0.74415 -4.73546,-2.02949 l -0.40589,1.75889 h -5.95315 V 85.887782 h 6.35904 v 18.806538 q 2.67215,-2.19861 5.68255,-3.58542 3.0104,-1.420637 6.76494,-1.420637 6.6973,0 10.55331,5.141357 3.88984,5.14135 3.88984,14.5108 z m -6.56199,0.16912 q 0,-6.76494 -2.23243,-10.24888 -2.23243,-3.51777 -7.20466,-3.51777 -2.77363,0 -5.6149,1.21768 -2.84128,1.18387 -5.27666,3.07805 v 21.64782 q 2.70598,1.21769 4.63399,1.69123 1.96183,0.47355 4.43103,0.47355 5.27666,0 8.25323,-3.45012 3.0104,-3.48395 3.0104,-10.89156 z"
         id="path564" />
    </g>
    <path
       style="fill:#ffffff;fill-opacity:1;stroke:#ff0707;stroke-width:6.08647;stroke-dasharray:none;stroke-opacity:1"
       d="M 76.371622,77.716603 178.62839,132.29837 v 0 z"
       id="path2234" />
    <g
       aria-label="95"
       transform="scale(1.0281627,0.97260875)"
       id="text350"
       style="font-size:67.9251px;fill:#ffffff;stroke-width:5.66041">
      <path
         d="m 120.54742,161.52102 q 0,6.46748 -1.49249,11.74096 -1.45933,5.27349 -4.44432,8.98814 -3.01815,3.78099 -7.56197,5.83731 -4.54382,2.05633 -10.679633,2.05633 -1.724661,0 -3.250322,-0.199 -1.525662,-0.16583 -2.719658,-0.56383 v -6.33481 h 0.331666 q 0.96183,0.4975 2.719657,0.96183 1.757827,0.43116 3.913653,0.43116 7.329807,0 11.475627,-4.37798 4.17899,-4.41115 4.84232,-12.13896 -3.08449,1.85733 -5.80415,2.65332 -2.71966,0.796 -5.93681,0.796 -3.051325,0 -5.538817,-0.597 -2.454325,-0.59699 -4.941816,-2.32166 -2.918657,-2.02316 -4.411152,-5.14081 -1.459328,-3.11766 -1.459328,-7.46248 0,-7.56197 4.974983,-12.30479 4.974983,-4.74281 12.13896,-4.74281 3.58199,0 6.63331,1.12766 3.05132,1.09449 5.33981,3.31665 2.81916,2.75283 4.34482,7.09765 1.52566,4.31165 1.52566,11.17712 z m -6.69964,-1.42616 q 0,-5.14081 -1.06133,-8.25847 -1.06133,-3.11766 -2.91866,-4.84232 -1.55882,-1.49249 -3.34982,-2.12266 -1.79099,-0.66333 -3.88048,-0.66333 -4.775988,0 -7.561979,2.98499 -2.752824,2.98499 -2.752824,8.39114 0,3.15082 0.895497,5.14082 0.895497,1.98999 3.018157,3.48249 1.492495,1.02816 3.283488,1.39299 1.790991,0.33167 3.979991,0.33167 2.58699,0 5.24031,-0.6965 2.65333,-0.6965 4.97498,-2.02316 0.0332,-0.6965 0.0663,-1.35983 0.0663,-0.6965 0.0663,-1.75783 z"
         id="path557" />
      <path
         d="m 163.39861,173.49415 q 0,3.44932 -1.26033,6.60014 -1.26033,3.15083 -3.44932,5.30665 -2.38799,2.32166 -5.70465,3.58199 -3.28348,1.22716 -7.6283,1.22716 -4.04632,0 -7.79414,-0.86233 -3.74782,-0.82916 -6.33481,-2.02316 v -6.99814 h 0.46433 q 2.71965,1.72466 6.36798,2.95182 3.64832,1.194 7.16397,1.194 2.35483,0 4.54382,-0.66333 2.22216,-0.66333 3.94682,-2.32166 1.45933,-1.42616 2.18899,-3.41615 0.76283,-1.99 0.76283,-4.61016 0,-2.55382 -0.89549,-4.31165 -0.86234,-1.75783 -2.42116,-2.81916 -1.72466,-1.26032 -4.21216,-1.75782 -2.45432,-0.53067 -5.50564,-0.53067 -2.91866,0 -5.63832,0.398 -2.68649,0.398 -4.64332,0.796 v -25.43875 h 29.71724 v 5.80415 h -23.31609 v 13.13395 q 1.42616,-0.13266 2.91866,-0.199 1.49249,-0.0663 2.58699,-0.0663 4.01315,0 7.03131,0.6965 3.01815,0.66333 5.53881,2.38799 2.65333,1.82416 4.11265,4.70965 1.45933,2.88549 1.45933,7.23031 z"
         id="path559" />
    </g>
  </g>
</svg>
