<?xml version="1.0" encoding="UTF-8" standalone="no"?>
<!-- Created with Inkscape (http://www.inkscape.org/) -->

<svg
   width="256"
   height="256"
   viewBox="0 0 256 256"
   version="1.1"
   id="svg5"
   xmlns="http://www.w3.org/2000/svg"
   xmlns:svg="http://www.w3.org/2000/svg">
  <defs
     id="defs2">
    <rect
       x="92.306976"
       y="145.61797"
       width="57.259941"
       height="26.655491"
       id="rect3586" />
    <rect
       x="80.460091"
       y="76.511131"
       width="61.702526"
       height="31.591694"
       id="rect2176" />
  </defs>
  <g
     id="layer1">
    <circle
       style="fill:#000000"
       id="path61"
       cx="128.09444"
       cy="128.09444"
       r="128" />
    <circle
       style="fill:none;fill-rule:evenodd;stroke:#ffffff;stroke-width:6;stroke-dasharray:none;stroke-opacity:1"
       id="path115"
       cx="128"
       cy="128"
       r="120" />
    <g
       aria-label="Pb"
       transform="matrix(6.1976093,0,0,5.3770216,-417.92828,-341.24929)"
       id="text2174"
       style="white-space:pre;shape-inside:url(#rect2176);fill:#ffffff">
      <path
         d="m 87.339844,81.371792 q 0,0.580078 -0.205078,1.078125 -0.199219,0.492187 -0.5625,0.855469 -0.451172,0.451172 -1.066407,0.679687 -0.615234,0.222656 -1.552734,0.222656 h -1.160156 v 3.251954 h -1.160157 v -8.72461 H 84 q 0.785156,0 1.330078,0.134766 0.544922,0.128906 0.966797,0.410156 0.498047,0.333984 0.767578,0.832031 0.275391,0.498047 0.275391,1.259766 z m -1.207032,0.0293 q 0,-0.451172 -0.158203,-0.785156 -0.158203,-0.333985 -0.480468,-0.544922 -0.28125,-0.181641 -0.644532,-0.257813 -0.357422,-0.08203 -0.908203,-0.08203 h -1.148437 v 3.486328 h 0.978515 q 0.703125,0 1.142578,-0.123047 0.439454,-0.128906 0.714844,-0.404297 0.275391,-0.28125 0.386719,-0.591797 0.117187,-0.310546 0.117187,-0.697266 z"
         id="path3590" />
      <path
         d="m 94.541016,84.137417 q 0,0.820312 -0.234375,1.476562 -0.228516,0.65625 -0.621094,1.101563 -0.416016,0.462891 -0.914063,0.697266 -0.498047,0.228515 -1.095703,0.228515 -0.55664,0 -0.972656,-0.134765 -0.416016,-0.128907 -0.820313,-0.351563 l -0.07031,0.304688 h -1.03125 v -9.117188 h 1.101562 v 3.257813 q 0.462891,-0.38086 0.984375,-0.621094 0.521485,-0.246094 1.171875,-0.246094 1.160157,0 1.828125,0.890625 0.673829,0.890625 0.673829,2.513672 z m -1.136719,0.0293 q 0,-1.171875 -0.386719,-1.775391 -0.386719,-0.609375 -1.248047,-0.609375 -0.480469,0 -0.972656,0.210938 -0.492188,0.205078 -0.914063,0.533203 v 3.75 q 0.46875,0.210937 0.802735,0.292969 0.339844,0.08203 0.767578,0.08203 0.914062,0 1.429687,-0.597656 0.521485,-0.603516 0.521485,-1.886718 z"
         id="path3592" />
    </g>
    <path
       style="fill:#ffffff;fill-opacity:1;stroke:#ff0707;stroke-width:6;stroke-dasharray:none;stroke-opacity:1"
       d="M 75.523891,76.017511 179.18413,128.34125 v 0 z"
       id="path2234" />
    <g
       aria-label="98"
       transform="matrix(5.7633319,0,0,5.4806251,-447.80976,-674.16674)"
       id="text3584"
       style="white-space:pre;shape-inside:url(#rect3586);fill:#ffffff">
      <path
         d="m 99.144531,151.67843 q 0,1.14258 -0.263672,2.07422 -0.257812,0.93164 -0.785156,1.58789 -0.533203,0.66797 -1.335937,1.03125 -0.802735,0.36328 -1.886719,0.36328 -0.304688,0 -0.574219,-0.0352 -0.269531,-0.0293 -0.480469,-0.0996 v -1.11914 h 0.05859 q 0.169922,0.0879 0.480469,0.16992 0.310547,0.0762 0.691406,0.0762 1.294922,0 2.027344,-0.77344 0.738281,-0.77929 0.855469,-2.14453 -0.544922,0.32813 -1.025391,0.46875 -0.480469,0.14063 -1.048828,0.14063 -0.539063,0 -0.978516,-0.10547 -0.433594,-0.10547 -0.873047,-0.41016 -0.515625,-0.35742 -0.779297,-0.9082 -0.257812,-0.55078 -0.257812,-1.31836 0,-1.33594 0.878906,-2.17383 0.878906,-0.83789 2.144531,-0.83789 0.632813,0 1.171875,0.19922 0.539063,0.19336 0.94336,0.58594 0.498047,0.48633 0.767578,1.2539 0.269531,0.76172 0.269531,1.97461 z m -1.183594,-0.25195 q 0,-0.9082 -0.1875,-1.45898 -0.1875,-0.55079 -0.515625,-0.85547 -0.27539,-0.26368 -0.591796,-0.375 -0.316407,-0.11719 -0.685547,-0.11719 -0.84375,0 -1.335938,0.52734 -0.486328,0.52735 -0.486328,1.48242 0,0.55665 0.158203,0.90821 0.158203,0.35156 0.533203,0.61523 0.263672,0.18164 0.580078,0.2461 0.316407,0.0586 0.703125,0.0586 0.457032,0 0.925782,-0.12305 0.46875,-0.12304 0.878906,-0.35742 0.0059,-0.12305 0.01172,-0.24023 0.01172,-0.12305 0.01172,-0.31055 z"
         id="path3595" />
      <path
         d="m 106.84961,154.13351 q 0,1.13086 -0.88477,1.88086 -0.8789,0.75 -2.21484,0.75 -1.41797,0 -2.26172,-0.73242 -0.83789,-0.73242 -0.83789,-1.875 0,-0.72656 0.42188,-1.3125 0.42187,-0.5918 1.18945,-0.9375 v -0.0352 q -0.70313,-0.375 -1.04297,-0.82031 -0.33398,-0.44531 -0.33398,-1.11328 0,-0.98438 0.80859,-1.64063 0.80859,-0.65625 2.05664,-0.65625 1.30664,0 2.08594,0.62696 0.77929,0.62695 0.77929,1.59375 0,0.59179 -0.36914,1.16601 -0.36914,0.56836 -1.08398,0.89063 v 0.0352 q 0.82031,0.35157 1.25391,0.86719 0.43359,0.51563 0.43359,1.3125 z m -1.38867,-4.25976 q 0,-0.62696 -0.48633,-0.9961 -0.48047,-0.375 -1.23047,-0.375 -0.73828,0 -1.21289,0.35156 -0.46875,0.35157 -0.46875,0.94922 0,0.42188 0.23438,0.73242 0.24023,0.30469 0.7207,0.54493 0.2168,0.10547 0.62109,0.27539 0.41016,0.16992 0.79688,0.28125 0.58008,-0.38672 0.80273,-0.80274 0.22266,-0.41601 0.22266,-0.96093 z m 0.18164,4.37109 q 0,-0.53906 -0.24024,-0.86133 -0.23437,-0.32812 -0.92578,-0.65625 -0.27539,-0.12891 -0.60351,-0.24023 -0.32813,-0.11133 -0.87305,-0.31055 -0.52734,0.28711 -0.84961,0.7793 -0.31641,0.49218 -0.31641,1.11328 0,0.79101 0.54493,1.30664 0.54492,0.51562 1.38281,0.51562 0.85547,0 1.36523,-0.43945 0.51563,-0.43945 0.51563,-1.20703 z"
         id="path3597" />
    </g>
  </g>
</svg>
